<svg width="10" height="10" viewBox="0 0 10 10" fill="none" xmlns="http://www.w3.org/2000/svg">
<path d="M8.79883 0.000976563L8.90039 0.00585938C9.40482 0.0568805 9.79879 0.483102 9.79883 1.00098V8.7998C9.7987 9.35195 9.35101 9.79977 8.79883 9.7998C8.24689 9.79951 7.79896 9.3518 7.79883 8.7998V3.41504L2.65137 8.5625C2.26097 8.95236 1.6277 8.95236 1.2373 8.5625C0.846949 8.17214 0.847284 7.539 1.2373 7.14844L6.38574 1.99902L1 2C0.447842 1.99991 9.13825e-05 1.55214 0 1C9.0626e-05 0.44784 0.447858 9.16257e-05 1 0L8.79883 0.000976563Z" fill="#2A2019"/>
</svg>
